<?xml version="1.0" standalone="no"?>
<!DOCTYPE svg PUBLIC "-//W3C//DTD SVG 20010904//EN"
 "http://www.w3.org/TR/2001/REC-SVG-20010904/DTD/svg10.dtd">
<svg version="1.0" xmlns="http://www.w3.org/2000/svg"
 width="1000.000000pt" height="1000.000000pt" viewBox="0 0 1000.000000 1000.000000"
 preserveAspectRatio="xMidYMid meet">
<g transform="translate(0.000000,1000.000000) scale(0.100000,-0.100000)"
fill="#000000" stroke="none">
<path d="M4870 8989 c-2648 -373 -4818 -678 -4821 -679 -8 0 -19 -3418 -19
-5864 l0 -1999 113 -62 c63 -33 118 -60 123 -58 5 1 2186 309 4848 682 2661
374 4840 682 4842 684 3 2 8 1771 12 3931 l7 3927 -111 60 c-78 41 -122 59
-145 58 -19 -1 -2201 -307 -4849 -680z m1125 -1009 c188 -59 343 -206 419
-396 56 -138 56 -144 56 -927 0 -668 -2 -729 -19 -813 -48 -231 -189 -459
-371 -596 -80 -61 -224 -133 -305 -153 -96 -23 -1270 -185 -1343 -185 -258 1
-490 157 -602 404 -67 148 -65 113 -65 941 0 674 2 758 17 827 81 362 354 662
678 744 36 9 328 54 650 100 513 73 599 82 700 80 84 -3 134 -9 185 -26z
m1500 -3599 c95 -42 156 -140 163 -261 7 -127 -35 -234 -129 -327 -91 -91 92
-59 -2388 -408 -1232 -173 -2269 -315 -2305 -315 -121 0 -225 83 -260 210 -19
66 -20 110 -5 182 26 124 134 256 241 296 76 28 4513 653 4587 646 30 -2 73
-13 96 -23z m1371 -1239 c58 -30 103 -78 133 -142 33 -70 36 -195 8 -277 -38
-108 -138 -213 -238 -248 -56 -20 -7217 -1028 -7299 -1027 -78 0 -126 19 -185
73 -87 80 -118 226 -76 356 37 114 131 221 230 260 63 24 7229 1033 7316 1029
47 -2 84 -10 111 -24z"/>
</g>
</svg>
